<svg id="visual" viewBox="0 0 900 600" width="900" height="600" xmlns="http://www.w3.org/2000/svg" xmlns:xlink="http://www.w3.org/1999/xlink" version="1.1"><rect x="0" y="0" width="900" height="600" fill="#f0f5f8"></rect><defs><linearGradient id="grad1_0" x1="33.3%" y1="100%" x2="100%" y2="0%"><stop offset="20%" stop-color="#f0f5f8" stop-opacity="1"></stop><stop offset="80%" stop-color="#f0f5f8" stop-opacity="1"></stop></linearGradient></defs><defs><linearGradient id="grad2_0" x1="0%" y1="100%" x2="66.7%" y2="0%"><stop offset="20%" stop-color="#f0f5f8" stop-opacity="1"></stop><stop offset="80%" stop-color="#f0f5f8" stop-opacity="1"></stop></linearGradient></defs><g transform="translate(900, 600)"><path d="M-378.6 0C-370.9 -38.5 -363.2 -77.1 -351.9 -114.3C-340.5 -151.6 -325.5 -187.7 -304.2 -221C-282.9 -254.4 -255.3 -285 -222.5 -306.3C-189.7 -327.6 -151.7 -339.5 -113.7 -350C-75.8 -360.5 -37.9 -369.5 0 -378.6L0 0Z" fill="#25e7e7"></path></g><g transform="translate(0, 0)"><path d="M378.6 0C371 38.4 363.5 76.8 352.8 114.6C342.2 152.5 328.4 189.8 306.3 222.5C284.2 255.2 253.7 283.3 219.8 302.6C186 321.8 148.8 332.1 111.6 343.3C74.4 354.5 37.2 366.6 0 378.6L0 0Z" fill="#25e7e7"></path></g></svg>